<svg width="55.000000" height="55.000000" viewBox="0 0 55 55" fill="none" xmlns="http://www.w3.org/2000/svg" xmlns:xlink="http://www.w3.org/1999/xlink">
	<desc>
			Created with Pixso.
	</desc>
	<defs>
		<clipPath id="clip156_527">
			<rect id="32px/map" width="32.000000" height="32.000000" transform="translate(12.000000 12.000000)" fill="white" fill-opacity="0"/>
		</clipPath>
	</defs>
	<rect id="Rectangle 34" width="55.000000" height="55.000000" fill="#2C2C2C" fill-opacity="1.000000"/>
	<rect id="32px/map" width="32.000000" height="32.000000" transform="translate(12.000000 12.000000)" fill="#FFFFFF" fill-opacity="0"/>
	<g clip-path="url(#clip156_527)">
		<path id="Vector" d="M28 20.66C28.88 20.66 29.73 21.01 30.35 21.64C30.98 22.26 31.33 23.11 31.33 23.99C31.33 24.43 31.24 24.87 31.07 25.27C30.91 25.67 30.66 26.04 30.35 26.35C30.04 26.66 29.67 26.91 29.27 27.07C28.87 27.24 28.43 27.33 28 27.33C27.11 27.33 26.26 26.98 25.64 26.35C25.01 25.73 24.66 24.88 24.66 23.99C24.66 23.11 25.01 22.26 25.64 21.64C26.26 21.01 27.11 20.66 28 20.66ZM28 14.66C30.47 14.66 32.84 15.64 34.59 17.4C36.34 19.15 37.33 21.52 37.33 23.99C37.33 30.99 28 41.33 28 41.33C28 41.33 18.66 30.99 18.66 23.99C18.66 21.52 19.64 19.15 21.4 17.4C23.15 15.64 25.52 14.66 28 14.66ZM28 17.33C26.23 17.33 24.53 18.03 23.28 19.28C22.03 20.53 21.33 22.23 21.33 23.99C21.33 25.33 21.33 27.99 28 36.94C34.66 27.99 34.66 25.33 34.66 23.99C34.66 22.23 33.96 20.53 32.71 19.28C31.46 18.03 29.76 17.33 28 17.33Z" fill="#F8F5F4" fill-opacity="1.000000" fill-rule="nonzero"/>
	</g>
</svg>
